<svg xmlns="http://www.w3.org/2000/svg" xmlns:xlink="http://www.w3.org/1999/xlink" width="500" zoomAndPan="magnify" viewBox="0 0 375 149.999998" height="200" preserveAspectRatio="xMidYMid meet" version="1.0"><defs><filter x="0%" y="0%" width="100%" height="100%" id="d088edf7a4"><feColorMatrix values="0 0 0 0 1 0 0 0 0 1 0 0 0 0 1 0 0 0 1 0" color-interpolation-filters="sRGB"/></filter><g/><clipPath id="479341cfb4"><path d="M 74.332031 0 L 375 0 L 375 150 L 74.332031 150 Z M 74.332031 0 " clip-rule="nonzero"/></clipPath><clipPath id="3066f976ec"><path d="M 0.332031 0 L 301 0 L 301 150 L 0.332031 150 Z M 0.332031 0 " clip-rule="nonzero"/></clipPath><clipPath id="d47f84ff78"><path d="M 0.332031 0 L 301 0 L 301 150 L 0.332031 150 Z M 0.332031 0 " clip-rule="nonzero"/></clipPath><linearGradient x1="-214.896" gradientTransform="matrix(0.75036, 0, 0, 0.75027, 161.580337, 18.727061)" y1="75" x2="185.803781" gradientUnits="userSpaceOnUse" y2="75" id="421a512438"><stop stop-opacity="1" stop-color="rgb(54.899597%, 32.159424%, 100%)" offset="0"/><stop stop-opacity="1" stop-color="rgb(54.899597%, 32.159424%, 100%)" offset="0.5"/><stop stop-opacity="1" stop-color="rgb(54.899597%, 32.159424%, 100%)" offset="0.53125"/><stop stop-opacity="1" stop-color="rgb(55.143738%, 32.293701%, 99.620056%)" offset="0.535156"/><stop stop-opacity="1" stop-color="rgb(55.387878%, 32.427979%, 99.241638%)" offset="0.539062"/><stop stop-opacity="1" stop-color="rgb(56.080627%, 32.806396%, 98.170471%)" offset="0.542969"/><stop stop-opacity="1" stop-color="rgb(56.773376%, 33.18634%, 97.099304%)" offset="0.546875"/><stop stop-opacity="1" stop-color="rgb(57.466125%, 33.564758%, 96.026611%)" offset="0.550781"/><stop stop-opacity="1" stop-color="rgb(58.158875%, 33.944702%, 94.955444%)" offset="0.554688"/><stop stop-opacity="1" stop-color="rgb(58.850098%, 34.32312%, 93.882751%)" offset="0.558594"/><stop stop-opacity="1" stop-color="rgb(59.542847%, 34.703064%, 92.811584%)" offset="0.5625"/><stop stop-opacity="1" stop-color="rgb(60.235596%, 35.081482%, 91.740417%)" offset="0.566406"/><stop stop-opacity="1" stop-color="rgb(60.928345%, 35.461426%, 90.66925%)" offset="0.570312"/><stop stop-opacity="1" stop-color="rgb(61.619568%, 35.839844%, 89.596558%)" offset="0.574219"/><stop stop-opacity="1" stop-color="rgb(62.312317%, 36.219788%, 88.525391%)" offset="0.578125"/><stop stop-opacity="1" stop-color="rgb(63.005066%, 36.598206%, 87.454224%)" offset="0.582031"/><stop stop-opacity="1" stop-color="rgb(63.697815%, 36.978149%, 86.383057%)" offset="0.585938"/><stop stop-opacity="1" stop-color="rgb(64.389038%, 37.356567%, 85.310364%)" offset="0.589844"/><stop stop-opacity="1" stop-color="rgb(65.081787%, 37.736511%, 84.239197%)" offset="0.59375"/><stop stop-opacity="1" stop-color="rgb(65.774536%, 38.114929%, 83.16803%)" offset="0.597656"/><stop stop-opacity="1" stop-color="rgb(66.467285%, 38.494873%, 82.096863%)" offset="0.601562"/><stop stop-opacity="1" stop-color="rgb(67.158508%, 38.873291%, 81.02417%)" offset="0.605469"/><stop stop-opacity="1" stop-color="rgb(67.851257%, 39.253235%, 79.953003%)" offset="0.609375"/><stop stop-opacity="1" stop-color="rgb(68.544006%, 39.631653%, 78.88031%)" offset="0.613281"/><stop stop-opacity="1" stop-color="rgb(69.236755%, 40.011597%, 77.809143%)" offset="0.617188"/><stop stop-opacity="1" stop-color="rgb(69.927979%, 40.390015%, 76.737976%)" offset="0.621094"/><stop stop-opacity="1" stop-color="rgb(70.620728%, 40.769958%, 75.666809%)" offset="0.625"/><stop stop-opacity="1" stop-color="rgb(71.313477%, 41.148376%, 74.594116%)" offset="0.628906"/><stop stop-opacity="1" stop-color="rgb(72.006226%, 41.52832%, 73.522949%)" offset="0.632812"/><stop stop-opacity="1" stop-color="rgb(72.697449%, 41.906738%, 72.451782%)" offset="0.636719"/><stop stop-opacity="1" stop-color="rgb(73.390198%, 42.286682%, 71.380615%)" offset="0.640625"/><stop stop-opacity="1" stop-color="rgb(74.082947%, 42.6651%, 70.307922%)" offset="0.644531"/><stop stop-opacity="1" stop-color="rgb(74.775696%, 43.045044%, 69.236755%)" offset="0.648438"/><stop stop-opacity="1" stop-color="rgb(75.468445%, 43.423462%, 68.165588%)" offset="0.652344"/><stop stop-opacity="1" stop-color="rgb(76.161194%, 43.803406%, 67.094421%)" offset="0.65625"/><stop stop-opacity="1" stop-color="rgb(76.852417%, 44.181824%, 66.021729%)" offset="0.660156"/><stop stop-opacity="1" stop-color="rgb(77.545166%, 44.561768%, 64.950562%)" offset="0.664062"/><stop stop-opacity="1" stop-color="rgb(78.237915%, 44.940186%, 63.877869%)" offset="0.667969"/><stop stop-opacity="1" stop-color="rgb(78.930664%, 45.320129%, 62.806702%)" offset="0.671875"/><stop stop-opacity="1" stop-color="rgb(79.621887%, 45.698547%, 61.735535%)" offset="0.675781"/><stop stop-opacity="1" stop-color="rgb(80.314636%, 46.078491%, 60.664368%)" offset="0.679688"/><stop stop-opacity="1" stop-color="rgb(81.007385%, 46.456909%, 59.591675%)" offset="0.683594"/><stop stop-opacity="1" stop-color="rgb(81.700134%, 46.836853%, 58.520508%)" offset="0.6875"/><stop stop-opacity="1" stop-color="rgb(82.391357%, 47.215271%, 57.449341%)" offset="0.691406"/><stop stop-opacity="1" stop-color="rgb(83.084106%, 47.595215%, 56.378174%)" offset="0.695312"/><stop stop-opacity="1" stop-color="rgb(83.776855%, 47.973633%, 55.305481%)" offset="0.699219"/><stop stop-opacity="1" stop-color="rgb(84.469604%, 48.353577%, 54.234314%)" offset="0.703125"/><stop stop-opacity="1" stop-color="rgb(85.160828%, 48.731995%, 53.163147%)" offset="0.707031"/><stop stop-opacity="1" stop-color="rgb(85.853577%, 49.111938%, 52.09198%)" offset="0.710938"/><stop stop-opacity="1" stop-color="rgb(86.546326%, 49.490356%, 51.019287%)" offset="0.714844"/><stop stop-opacity="1" stop-color="rgb(87.239075%, 49.8703%, 49.94812%)" offset="0.71875"/><stop stop-opacity="1" stop-color="rgb(87.930298%, 50.248718%, 48.875427%)" offset="0.722656"/><stop stop-opacity="1" stop-color="rgb(88.623047%, 50.628662%, 47.80426%)" offset="0.726562"/><stop stop-opacity="1" stop-color="rgb(89.315796%, 51.00708%, 46.733093%)" offset="0.730469"/><stop stop-opacity="1" stop-color="rgb(90.008545%, 51.387024%, 45.661926%)" offset="0.734375"/><stop stop-opacity="1" stop-color="rgb(90.699768%, 51.765442%, 44.589233%)" offset="0.738281"/><stop stop-opacity="1" stop-color="rgb(91.392517%, 52.145386%, 43.518066%)" offset="0.742188"/><stop stop-opacity="1" stop-color="rgb(92.085266%, 52.523804%, 42.446899%)" offset="0.746094"/><stop stop-opacity="1" stop-color="rgb(92.778015%, 52.903748%, 41.375732%)" offset="0.75"/><stop stop-opacity="1" stop-color="rgb(93.470764%, 53.282166%, 40.30304%)" offset="0.753906"/><stop stop-opacity="1" stop-color="rgb(94.163513%, 53.662109%, 39.231873%)" offset="0.757812"/><stop stop-opacity="1" stop-color="rgb(94.854736%, 54.040527%, 38.160706%)" offset="0.761719"/><stop stop-opacity="1" stop-color="rgb(95.547485%, 54.420471%, 37.089539%)" offset="0.765625"/><stop stop-opacity="1" stop-color="rgb(96.240234%, 54.800415%, 36.016846%)" offset="0.769531"/><stop stop-opacity="1" stop-color="rgb(96.932983%, 55.180359%, 34.945679%)" offset="0.773438"/><stop stop-opacity="1" stop-color="rgb(97.624207%, 55.558777%, 33.872986%)" offset="0.777344"/><stop stop-opacity="1" stop-color="rgb(98.316956%, 55.938721%, 32.801819%)" offset="0.78125"/><stop stop-opacity="1" stop-color="rgb(99.009705%, 56.317139%, 31.730652%)" offset="0.785156"/><stop stop-opacity="1" stop-color="rgb(99.702454%, 56.697083%, 30.659485%)" offset="0.789062"/><stop stop-opacity="1" stop-color="rgb(99.850464%, 56.777954%, 30.429077%)" offset="0.792969"/><stop stop-opacity="1" stop-color="rgb(100%, 56.858826%, 30.198669%)" offset="0.796875"/><stop stop-opacity="1" stop-color="rgb(100%, 56.858826%, 30.198669%)" offset="0.8125"/><stop stop-opacity="1" stop-color="rgb(100%, 56.858826%, 30.198669%)" offset="0.875"/><stop stop-opacity="1" stop-color="rgb(100%, 56.858826%, 30.198669%)" offset="1"/></linearGradient><clipPath id="d4bed22627"><rect x="0" width="301" y="0" height="150"/></clipPath><clipPath id="5737593da6"><path d="M 0.332031 0 L 301 0 L 301 150 L 0.332031 150 Z M 0.332031 0 " clip-rule="nonzero"/></clipPath><clipPath id="28f0a159dd"><rect x="0" width="301" y="0" height="150"/></clipPath><clipPath id="ad55423e7b"><rect x="0" width="301" y="0" height="150"/></clipPath><mask id="0f00170f44"><g filter="url(#d088edf7a4)"><g transform="matrix(1, 0, 0, 1, 0, -0.000000000000007527)"><g clip-path="url(#ad55423e7b)"><g clip-path="url(#5737593da6)"><g transform="matrix(1, 0, 0, 1, 0, -0.000000000000007527)"><g clip-path="url(#28f0a159dd)"><g fill="#000000" fill-opacity="1"><g transform="translate(161.58104, 105.747295)"><g><path d="M 29.671875 -32.296875 L 51.8125 -32.296875 L 45.4375 -2.328125 C 41.925781 -1.117188 38.664062 -0.300781 35.65625 0.125 C 32.65625 0.5625 29.476562 0.78125 26.125 0.78125 C 19.332031 0.78125 14.085938 -1.144531 10.390625 -5 C 6.691406 -8.851562 4.84375 -14.382812 4.84375 -21.59375 C 4.84375 -28.625 6.242188 -34.976562 9.046875 -40.65625 C 11.859375 -46.34375 15.804688 -50.722656 20.890625 -53.796875 C 25.984375 -56.878906 31.859375 -58.421875 38.515625 -58.421875 C 44.234375 -58.421875 49.613281 -57.125 54.65625 -54.53125 L 50.125 -44.65625 C 48.1875 -45.707031 46.242188 -46.546875 44.296875 -47.171875 C 42.359375 -47.804688 40.25 -48.125 37.96875 -48.125 C 33.957031 -48.125 30.367188 -47.035156 27.203125 -44.859375 C 24.046875 -42.679688 21.566406 -39.578125 19.765625 -35.546875 C 17.972656 -31.523438 17.078125 -27.191406 17.078125 -22.546875 C 17.078125 -18.035156 18.023438 -14.722656 19.921875 -12.609375 C 21.828125 -10.492188 24.75 -9.4375 28.6875 -9.4375 C 30.675781 -9.4375 32.90625 -9.753906 35.375 -10.390625 L 37.96875 -22.15625 L 27.46875 -22.15625 Z M 29.671875 -32.296875 "/></g></g></g><g fill="#000000" fill-opacity="1"><g transform="translate(204.039705, 105.747295)"><g><path d="M 31.671875 -27.390625 C 31.671875 -32.554688 29.796875 -35.140625 26.046875 -35.140625 C 24.078125 -35.140625 22.3125 -34.335938 20.75 -32.734375 C 19.1875 -31.128906 17.914062 -28.78125 16.9375 -25.6875 C 15.957031 -22.59375 15.46875 -19.40625 15.46875 -16.125 C 15.46875 -11.28125 17.429688 -8.859375 21.359375 -8.859375 C 23.328125 -8.859375 25.097656 -9.660156 26.671875 -11.265625 C 28.242188 -12.878906 29.46875 -15.125 30.34375 -18 C 31.226562 -20.875 31.671875 -24.003906 31.671875 -27.390625 Z M 43.59375 -27.390625 C 43.59375 -21.847656 42.664062 -16.9375 40.8125 -12.65625 C 38.96875 -8.382812 36.300781 -5.078125 32.8125 -2.734375 C 29.320312 -0.390625 25.175781 0.78125 20.375 0.78125 C 15.257812 0.78125 11.175781 -0.753906 8.125 -3.828125 C 5.070312 -6.910156 3.546875 -11.007812 3.546875 -16.125 C 3.546875 -21.71875 4.484375 -26.695312 6.359375 -31.0625 C 8.234375 -35.425781 10.941406 -38.804688 14.484375 -41.203125 C 18.023438 -43.609375 22.164062 -44.8125 26.90625 -44.8125 C 32.050781 -44.8125 36.117188 -43.265625 39.109375 -40.171875 C 42.097656 -37.078125 43.59375 -32.816406 43.59375 -27.390625 Z M 43.59375 -27.390625 "/></g></g></g></g></g></g></g></g></g></mask><clipPath id="870b017e7f"><path d="M 0.332031 0 L 301 0 L 301 150 L 0.332031 150 Z M 0.332031 0 " clip-rule="nonzero"/></clipPath><clipPath id="59b0fbe6ca"><rect x="0" width="301" y="0" height="150"/></clipPath><clipPath id="5f22d410d5"><rect x="0" width="301" y="0" height="150"/></clipPath></defs><g fill="#000000" fill-opacity="1"><g transform="translate(45.3281, 102.749998)"><g><path d="M 5.796875 -0.40625 C 6.984375 -1.851562 7.867188 -3.191406 8.453125 -4.421875 C 9.046875 -5.660156 9.34375 -7.007812 9.34375 -8.46875 L 9.34375 -47.96875 C 9.34375 -49.414062 9.046875 -50.753906 8.453125 -51.984375 C 7.867188 -53.222656 6.984375 -54.570312 5.796875 -56.03125 L 5.796875 -56.421875 L 16.765625 -56.421875 L 37.078125 -10.15625 L 56.984375 -56.421875 L 66.75 -56.421875 L 66.75 -56.03125 C 66.050781 -55.0625 65.457031 -53.847656 64.96875 -52.390625 C 64.488281 -50.941406 64.25 -49.46875 64.25 -47.96875 L 64.25 -8.46875 C 64.25 -6.957031 64.488281 -5.476562 64.96875 -4.03125 C 65.457031 -2.582031 66.050781 -1.375 66.75 -0.40625 L 66.75 0 L 54.09375 0 L 54.09375 -0.40625 C 54.789062 -1.375 55.378906 -2.582031 55.859375 -4.03125 C 56.347656 -5.476562 56.59375 -6.957031 56.59375 -8.46875 L 56.59375 -50.375 L 34.75 0 L 33.375 0 L 11.453125 -49.734375 L 11.453125 -8.46875 C 11.453125 -7.007812 11.742188 -5.660156 12.328125 -4.421875 C 12.921875 -3.191406 13.8125 -1.851562 15 -0.40625 L 15 0 L 5.796875 0 Z M 5.796875 -0.40625 "/></g></g></g><g fill="#000000" fill-opacity="1"><g transform="translate(107.954034, 102.749998)"><g><path d="M 39.09375 -12.8125 C 38.238281 -8.726562 36.316406 -5.421875 33.328125 -2.890625 C 30.347656 -0.367188 26.734375 0.890625 22.484375 0.890625 C 18.941406 0.890625 15.757812 0.0976562 12.9375 -1.484375 C 10.113281 -3.078125 7.878906 -5.375 6.234375 -8.375 C 4.597656 -11.382812 3.78125 -14.9375 3.78125 -19.03125 C 3.78125 -23.4375 4.664062 -27.316406 6.4375 -30.671875 C 8.21875 -34.023438 10.582031 -36.613281 13.53125 -38.4375 C 16.488281 -40.269531 19.660156 -41.1875 23.046875 -41.1875 C 26.222656 -41.1875 28.96875 -40.488281 31.28125 -39.09375 C 33.59375 -37.695312 35.351562 -35.851562 36.5625 -33.5625 C 37.769531 -31.28125 38.375 -28.800781 38.375 -26.125 L 10 -26.125 L 10 -25.3125 C 10 -20.90625 10.671875 -17.171875 12.015625 -14.109375 C 13.359375 -11.046875 15.195312 -8.734375 17.53125 -7.171875 C 19.863281 -5.617188 22.507812 -4.84375 25.46875 -4.84375 C 28.476562 -4.84375 31.113281 -5.550781 33.375 -6.96875 C 35.632812 -8.394531 37.273438 -10.34375 38.296875 -12.8125 Z M 20.46875 -38.765625 C 17.84375 -38.765625 15.5625 -37.851562 13.625 -36.03125 C 11.6875 -34.207031 10.53125 -31.46875 10.15625 -27.8125 L 30.71875 -27.8125 C 30.28125 -31.300781 29.203125 -34 27.484375 -35.90625 C 25.765625 -37.8125 23.425781 -38.765625 20.46875 -38.765625 Z M 20.46875 -38.765625 "/></g></g></g><g fill="#000000" fill-opacity="1"><g transform="translate(139.145339, 102.749998)"><g><path d="M 39.09375 -12.8125 C 38.238281 -8.726562 36.316406 -5.421875 33.328125 -2.890625 C 30.347656 -0.367188 26.734375 0.890625 22.484375 0.890625 C 18.941406 0.890625 15.757812 0.0976562 12.9375 -1.484375 C 10.113281 -3.078125 7.878906 -5.375 6.234375 -8.375 C 4.597656 -11.382812 3.78125 -14.9375 3.78125 -19.03125 C 3.78125 -23.4375 4.664062 -27.316406 6.4375 -30.671875 C 8.21875 -34.023438 10.582031 -36.613281 13.53125 -38.4375 C 16.488281 -40.269531 19.660156 -41.1875 23.046875 -41.1875 C 26.222656 -41.1875 28.96875 -40.488281 31.28125 -39.09375 C 33.59375 -37.695312 35.351562 -35.851562 36.5625 -33.5625 C 37.769531 -31.28125 38.375 -28.800781 38.375 -26.125 L 10 -26.125 L 10 -25.3125 C 10 -20.90625 10.671875 -17.171875 12.015625 -14.109375 C 13.359375 -11.046875 15.195312 -8.734375 17.53125 -7.171875 C 19.863281 -5.617188 22.507812 -4.84375 25.46875 -4.84375 C 28.476562 -4.84375 31.113281 -5.550781 33.375 -6.96875 C 35.632812 -8.394531 37.273438 -10.34375 38.296875 -12.8125 Z M 20.46875 -38.765625 C 17.84375 -38.765625 15.5625 -37.851562 13.625 -36.03125 C 11.6875 -34.207031 10.53125 -31.46875 10.15625 -27.8125 L 30.71875 -27.8125 C 30.28125 -31.300781 29.203125 -34 27.484375 -35.90625 C 25.765625 -37.8125 23.425781 -38.765625 20.46875 -38.765625 Z M 20.46875 -38.765625 "/></g></g></g><g fill="#000000" fill-opacity="1"><g transform="translate(170.336644, 102.749998)"><g><path d="M 17.734375 0.890625 C 14.828125 0.890625 12.351562 -0.046875 10.3125 -1.921875 C 8.269531 -3.804688 7.25 -6.441406 7.25 -9.828125 L 7.25 -33.21875 C 7.25 -35.789062 6.039062 -37.5625 3.625 -38.53125 L 3.625 -38.9375 C 7.28125 -40.8125 10.75 -43.820312 14.03125 -47.96875 L 14.421875 -47.96875 L 14.421875 -40.296875 L 26.125 -40.296875 L 25.234375 -37.71875 L 14.421875 -37.71875 L 14.421875 -9.828125 C 14.421875 -7.628906 15.039062 -5.910156 16.28125 -4.671875 C 17.519531 -3.441406 19.078125 -2.828125 20.953125 -2.828125 C 22.191406 -2.828125 23.253906 -3.023438 24.140625 -3.421875 C 25.023438 -3.828125 25.6875 -4.300781 26.125 -4.84375 L 26.921875 -4.4375 C 26.066406 -2.820312 24.84375 -1.53125 23.25 -0.5625 C 21.664062 0.40625 19.828125 0.890625 17.734375 0.890625 Z M 17.734375 0.890625 "/></g></g></g><g clip-path="url(#479341cfb4)"><g transform="matrix(1, 0, 0, 1, 74, -0.000000000000007527)"><g clip-path="url(#5f22d410d5)"><g clip-path="url(#3066f976ec)"><g mask="url(#0f00170f44)"><g transform="matrix(1, 0, 0, 1, 0, -0.000000000000007527)"><g clip-path="url(#59b0fbe6ca)"><g clip-path="url(#870b017e7f)"><path fill="url(#421a512438)" d="M 0.332031 0 L 0.332031 150 L 301 150 L 301 0 Z M 0.332031 0 " fill-rule="nonzero"/></g></g></g></g></g></g></g></g><g fill="#000000" fill-opacity="1"><g transform="translate(195.060593, 99.722864)"><g><path d="M 36.46875 4.5 C 35.144531 4.5 33.914062 4.191406 32.78125 3.578125 C 31.644531 2.960938 30.515625 2.3125 29.390625 1.625 C 28.691406 1.175781 28.023438 1.148438 27.390625 1.546875 C 23.703125 3.316406 20.007812 4.203125 16.3125 4.203125 C 13.0625 4.203125 10.09375 3.550781 7.40625 2.25 C 4.726562 0.945312 2.578125 -0.847656 0.953125 -3.140625 C -0.671875 -5.429688 -1.484375 -8.050781 -1.484375 -11 C -1.484375 -12.820312 -1.113281 -14.71875 -0.375 -16.6875 C 0.613281 -19.050781 2.078125 -21.054688 4.015625 -22.703125 C 5.960938 -24.347656 7.921875 -25.9375 9.890625 -27.46875 C 10.429688 -27.957031 10.675781 -28.597656 10.625 -29.390625 C 10.476562 -30.660156 10.40625 -31.863281 10.40625 -33 C 10.40625 -36.445312 10.929688 -39.203125 11.984375 -41.265625 C 13.046875 -43.335938 14.378906 -44.851562 15.984375 -45.8125 C 17.585938 -46.769531 19.195312 -47.25 20.8125 -47.25 C 22.9375 -47.25 24.820312 -46.582031 26.46875 -45.25 C 28.113281 -43.925781 28.9375 -42.15625 28.9375 -39.9375 C 28.9375 -38.113281 28.1875 -36.046875 26.6875 -33.734375 C 25.1875 -31.421875 22.566406 -29.035156 18.828125 -26.578125 C 18.085938 -26.035156 17.816406 -25.394531 18.015625 -24.65625 C 18.410156 -23.425781 18.988281 -21.984375 19.75 -20.328125 C 20.507812 -18.679688 21.359375 -17.035156 22.296875 -15.390625 C 23.234375 -13.742188 24.164062 -12.253906 25.09375 -10.921875 C 26.03125 -9.597656 26.84375 -8.59375 27.53125 -7.90625 C 28.269531 -7.257812 28.890625 -7.40625 29.390625 -8.34375 C 29.828125 -9.175781 30.144531 -10.082031 30.34375 -11.0625 C 30.539062 -12.050781 30.640625 -13.085938 30.640625 -14.171875 C 30.640625 -16.140625 30.488281 -17.628906 30.1875 -18.640625 C 29.894531 -19.648438 29.5625 -20.398438 29.1875 -20.890625 C 28.820312 -21.378906 28.492188 -21.859375 28.203125 -22.328125 C 27.910156 -22.796875 27.765625 -23.472656 27.765625 -24.359375 C 27.765625 -25.203125 28.019531 -25.878906 28.53125 -26.390625 C 29.050781 -26.910156 29.628906 -27.171875 30.265625 -27.171875 C 31.109375 -27.171875 31.894531 -26.957031 32.625 -26.53125 C 33.363281 -26.113281 34.054688 -25.316406 34.703125 -24.140625 C 35.484375 -22.710938 36.035156 -21.113281 36.359375 -19.34375 C 36.679688 -17.570312 36.84375 -15.820312 36.84375 -14.09375 C 36.84375 -12.320312 36.628906 -10.613281 36.203125 -8.96875 C 35.785156 -7.320312 35.132812 -5.859375 34.25 -4.578125 C 33.707031 -3.691406 33.804688 -2.976562 34.546875 -2.4375 C 35.429688 -1.894531 36.296875 -1.625 37.140625 -1.625 C 38.222656 -1.625 39.191406 -1.894531 40.046875 -2.4375 C 40.910156 -2.976562 41.734375 -3.53125 42.515625 -4.09375 C 43.304688 -4.664062 44.046875 -4.953125 44.734375 -4.953125 C 45.722656 -4.953125 46.398438 -4.617188 46.765625 -3.953125 C 47.140625 -3.285156 47.328125 -2.679688 47.328125 -2.140625 C 47.328125 -1.054688 46.734375 0 45.546875 1.03125 C 44.367188 2.0625 42.929688 2.894531 41.234375 3.53125 C 39.535156 4.175781 37.945312 4.5 36.46875 4.5 Z M 16.25 -32.921875 C 16.25 -32.679688 16.429688 -32.609375 16.796875 -32.703125 C 17.160156 -32.804688 17.566406 -33.050781 18.015625 -33.4375 C 18.753906 -34.082031 19.515625 -34.785156 20.296875 -35.546875 C 21.085938 -36.304688 21.753906 -37.066406 22.296875 -37.828125 C 22.835938 -38.597656 23.109375 -39.28125 23.109375 -39.875 C 23.109375 -40.457031 22.789062 -40.921875 22.15625 -41.265625 C 21.613281 -41.460938 21.117188 -41.5625 20.671875 -41.5625 C 19.640625 -41.5625 18.789062 -41.144531 18.125 -40.3125 C 17.457031 -39.476562 16.960938 -38.457031 16.640625 -37.25 C 16.328125 -36.039062 16.171875 -34.921875 16.171875 -33.890625 C 16.171875 -33.742188 16.171875 -33.582031 16.171875 -33.40625 C 16.171875 -33.238281 16.195312 -33.078125 16.25 -32.921875 Z M 16.171875 -1.625 C 17.109375 -1.625 18.054688 -1.707031 19.015625 -1.875 C 19.972656 -2.050781 20.921875 -2.3125 21.859375 -2.65625 C 22.398438 -2.851562 22.707031 -3.132812 22.78125 -3.5 C 22.851562 -3.875 22.691406 -4.257812 22.296875 -4.65625 C 20.273438 -7.113281 18.550781 -9.695312 17.125 -12.40625 C 15.695312 -15.113281 14.367188 -17.894531 13.140625 -20.75 C 12.648438 -21.78125 11.960938 -21.953125 11.078125 -21.265625 C 8.617188 -19.535156 6.847656 -17.785156 5.765625 -16.015625 C 4.679688 -14.242188 4.140625 -12.570312 4.140625 -11 C 4.140625 -9.226562 4.679688 -7.640625 5.765625 -6.234375 C 6.847656 -4.835938 8.3125 -3.71875 10.15625 -2.875 C 12 -2.039062 14.003906 -1.625 16.171875 -1.625 Z M 16.171875 -1.625 "/></g></g></g></svg>