<svg xmlns="http://www.w3.org/2000/svg" xmlns:xlink="http://www.w3.org/1999/xlink" width="500" zoomAndPan="magnify" viewBox="0 0 375 149.999998" height="200" preserveAspectRatio="xMidYMid meet" version="1.0"><defs><filter x="0%" y="0%" width="100%" height="100%" id="5822fd2eed"><feColorMatrix values="0 0 0 0 1 0 0 0 0 1 0 0 0 0 1 0 0 0 1 0" color-interpolation-filters="sRGB"/></filter><g/><clipPath id="fe636bd38b"><rect x="0" width="118" y="0" height="87"/></clipPath><clipPath id="7e01b657e1"><path d="M 0.980469 0 L 305.769531 0 L 305.769531 150 L 0.980469 150 Z M 0.980469 0 " clip-rule="nonzero"/></clipPath><clipPath id="8c53372ff1"><path d="M 0.980469 0 L 305.769531 0 L 305.769531 150 L 0.980469 150 Z M 0.980469 0 " clip-rule="nonzero"/></clipPath><clipPath id="7ba0ba1288"><path d="M 0.980469 0 L 305.769531 0 L 305.769531 150 L 0.980469 150 Z M 0.980469 0 " clip-rule="nonzero"/></clipPath><linearGradient x1="-286.12399" gradientTransform="matrix(0.430507, 0, 0, 0.430356, 124.15781, 31.960818)" y1="99.5" x2="421.858" gradientUnits="userSpaceOnUse" y2="99.5" id="d07e5cb1ac"><stop stop-opacity="1" stop-color="rgb(54.899597%, 32.159424%, 100%)" offset="0"/><stop stop-opacity="1" stop-color="rgb(54.899597%, 32.159424%, 100%)" offset="0.25"/><stop stop-opacity="1" stop-color="rgb(54.899597%, 32.159424%, 100%)" offset="0.375"/><stop stop-opacity="1" stop-color="rgb(54.899597%, 32.159424%, 100%)" offset="0.390625"/><stop stop-opacity="1" stop-color="rgb(54.899597%, 32.159424%, 100%)" offset="0.398438"/><stop stop-opacity="1" stop-color="rgb(55.14679%, 32.295227%, 99.615479%)" offset="0.402344"/><stop stop-opacity="1" stop-color="rgb(55.395508%, 32.43103%, 99.230957%)" offset="0.40625"/><stop stop-opacity="1" stop-color="rgb(56.314087%, 32.93457%, 97.808838%)" offset="0.410156"/><stop stop-opacity="1" stop-color="rgb(57.232666%, 33.43811%, 96.386719%)" offset="0.414062"/><stop stop-opacity="1" stop-color="rgb(58.151245%, 33.940125%, 94.9646%)" offset="0.417969"/><stop stop-opacity="1" stop-color="rgb(59.07135%, 34.443665%, 93.54248%)" offset="0.421875"/><stop stop-opacity="1" stop-color="rgb(59.989929%, 34.947205%, 92.120361%)" offset="0.425781"/><stop stop-opacity="1" stop-color="rgb(60.908508%, 35.450745%, 90.698242%)" offset="0.429688"/><stop stop-opacity="1" stop-color="rgb(61.827087%, 35.954285%, 89.276123%)" offset="0.433594"/><stop stop-opacity="1" stop-color="rgb(62.747192%, 36.457825%, 87.854004%)" offset="0.4375"/><stop stop-opacity="1" stop-color="rgb(63.665771%, 36.959839%, 86.431885%)" offset="0.441406"/><stop stop-opacity="1" stop-color="rgb(64.584351%, 37.463379%, 85.009766%)" offset="0.445312"/><stop stop-opacity="1" stop-color="rgb(65.50293%, 37.966919%, 83.587646%)" offset="0.449219"/><stop stop-opacity="1" stop-color="rgb(66.423035%, 38.470459%, 82.165527%)" offset="0.453125"/><stop stop-opacity="1" stop-color="rgb(67.341614%, 38.972473%, 80.743408%)" offset="0.457031"/><stop stop-opacity="1" stop-color="rgb(68.260193%, 39.476013%, 79.321289%)" offset="0.460938"/><stop stop-opacity="1" stop-color="rgb(69.178772%, 39.979553%, 77.89917%)" offset="0.464844"/><stop stop-opacity="1" stop-color="rgb(70.097351%, 40.483093%, 76.477051%)" offset="0.46875"/><stop stop-opacity="1" stop-color="rgb(71.01593%, 40.986633%, 75.054932%)" offset="0.472656"/><stop stop-opacity="1" stop-color="rgb(71.936035%, 41.490173%, 73.632812%)" offset="0.476563"/><stop stop-opacity="1" stop-color="rgb(72.854614%, 41.992188%, 72.210693%)" offset="0.480469"/><stop stop-opacity="1" stop-color="rgb(73.773193%, 42.495728%, 70.788574%)" offset="0.484375"/><stop stop-opacity="1" stop-color="rgb(74.691772%, 42.999268%, 69.364929%)" offset="0.488281"/><stop stop-opacity="1" stop-color="rgb(75.611877%, 43.502808%, 67.94281%)" offset="0.492188"/><stop stop-opacity="1" stop-color="rgb(76.530457%, 44.006348%, 66.520691%)" offset="0.496094"/><stop stop-opacity="1" stop-color="rgb(77.449036%, 44.509888%, 65.098572%)" offset="0.5"/><stop stop-opacity="1" stop-color="rgb(78.367615%, 45.011902%, 63.676453%)" offset="0.503906"/><stop stop-opacity="1" stop-color="rgb(79.28772%, 45.515442%, 62.254333%)" offset="0.507813"/><stop stop-opacity="1" stop-color="rgb(80.206299%, 46.018982%, 60.832214%)" offset="0.511719"/><stop stop-opacity="1" stop-color="rgb(81.124878%, 46.522522%, 59.410095%)" offset="0.515625"/><stop stop-opacity="1" stop-color="rgb(82.043457%, 47.024536%, 57.987976%)" offset="0.519531"/><stop stop-opacity="1" stop-color="rgb(82.962036%, 47.528076%, 56.565857%)" offset="0.523438"/><stop stop-opacity="1" stop-color="rgb(83.880615%, 48.031616%, 55.143738%)" offset="0.527344"/><stop stop-opacity="1" stop-color="rgb(84.80072%, 48.535156%, 53.721619%)" offset="0.53125"/><stop stop-opacity="1" stop-color="rgb(85.719299%, 49.038696%, 52.2995%)" offset="0.535156"/><stop stop-opacity="1" stop-color="rgb(86.637878%, 49.542236%, 50.87738%)" offset="0.539063"/><stop stop-opacity="1" stop-color="rgb(87.556458%, 50.04425%, 49.455261%)" offset="0.542969"/><stop stop-opacity="1" stop-color="rgb(88.476562%, 50.547791%, 48.033142%)" offset="0.546875"/><stop stop-opacity="1" stop-color="rgb(89.395142%, 51.051331%, 46.611023%)" offset="0.550781"/><stop stop-opacity="1" stop-color="rgb(90.313721%, 51.554871%, 45.188904%)" offset="0.554688"/><stop stop-opacity="1" stop-color="rgb(91.2323%, 52.058411%, 43.766785%)" offset="0.558594"/><stop stop-opacity="1" stop-color="rgb(92.152405%, 52.561951%, 42.344666%)" offset="0.5625"/><stop stop-opacity="1" stop-color="rgb(93.070984%, 53.063965%, 40.922546%)" offset="0.566406"/><stop stop-opacity="1" stop-color="rgb(93.989563%, 53.567505%, 39.500427%)" offset="0.570312"/><stop stop-opacity="1" stop-color="rgb(94.908142%, 54.071045%, 38.078308%)" offset="0.574219"/><stop stop-opacity="1" stop-color="rgb(95.826721%, 54.574585%, 36.656189%)" offset="0.578125"/><stop stop-opacity="1" stop-color="rgb(96.7453%, 55.078125%, 35.23407%)" offset="0.582031"/><stop stop-opacity="1" stop-color="rgb(97.665405%, 55.581665%, 33.811951%)" offset="0.585938"/><stop stop-opacity="1" stop-color="rgb(98.583984%, 56.083679%, 32.389832%)" offset="0.589844"/><stop stop-opacity="1" stop-color="rgb(99.502563%, 56.587219%, 30.967712%)" offset="0.59375"/><stop stop-opacity="1" stop-color="rgb(99.751282%, 56.723022%, 30.583191%)" offset="0.597656"/><stop stop-opacity="1" stop-color="rgb(100%, 56.858826%, 30.198669%)" offset="0.601562"/><stop stop-opacity="1" stop-color="rgb(100%, 56.858826%, 30.198669%)" offset="0.609375"/><stop stop-opacity="1" stop-color="rgb(100%, 56.858826%, 30.198669%)" offset="0.625"/><stop stop-opacity="1" stop-color="rgb(100%, 56.858826%, 30.198669%)" offset="0.75"/><stop stop-opacity="1" stop-color="rgb(100%, 56.858826%, 30.198669%)" offset="1"/></linearGradient><clipPath id="ce184b75fc"><rect x="0" width="306" y="0" height="150"/></clipPath><clipPath id="1826936d44"><path d="M 0.980469 0 L 305.769531 0 L 305.769531 150 L 0.980469 150 Z M 0.980469 0 " clip-rule="nonzero"/></clipPath><clipPath id="f6efbf4e81"><rect x="0" width="306" y="0" height="150"/></clipPath><clipPath id="7cfc0993b1"><rect x="0" width="306" y="0" height="150"/></clipPath><mask id="87a9ba91a9"><g filter="url(#5822fd2eed)"><g transform="matrix(1, 0, 0, 1, 0, -0.000000000000007527)"><g clip-path="url(#7cfc0993b1)"><g clip-path="url(#1826936d44)"><g transform="matrix(1, 0, 0, 1, 0, -0.000000000000007527)"><g clip-path="url(#f6efbf4e81)"><g fill="#000000" fill-opacity="1"><g transform="translate(124.101295, 98.673784)"><g><path d="M 22.671875 -24.6875 L 39.609375 -24.6875 L 34.734375 -1.78125 C 32.046875 -0.851562 29.550781 -0.226562 27.25 0.09375 C 24.957031 0.425781 22.53125 0.59375 19.96875 0.59375 C 14.78125 0.59375 10.769531 -0.875 7.9375 -3.8125 C 5.113281 -6.757812 3.703125 -10.992188 3.703125 -16.515625 C 3.703125 -21.890625 4.773438 -26.742188 6.921875 -31.078125 C 9.066406 -35.421875 12.082031 -38.769531 15.96875 -41.125 C 19.851562 -43.476562 24.34375 -44.65625 29.4375 -44.65625 C 33.8125 -44.65625 37.925781 -43.664062 41.78125 -41.6875 L 38.3125 -34.140625 C 36.832031 -34.941406 35.347656 -35.582031 33.859375 -36.0625 C 32.378906 -36.539062 30.765625 -36.78125 29.015625 -36.78125 C 25.953125 -36.78125 23.210938 -35.945312 20.796875 -34.28125 C 18.378906 -32.625 16.484375 -30.253906 15.109375 -27.171875 C 13.734375 -24.097656 13.046875 -20.785156 13.046875 -17.234375 C 13.046875 -13.785156 13.769531 -11.253906 15.21875 -9.640625 C 16.675781 -8.023438 18.910156 -7.21875 21.921875 -7.21875 C 23.441406 -7.21875 25.144531 -7.457031 27.03125 -7.9375 L 29.015625 -16.9375 L 21 -16.9375 Z M 22.671875 -24.6875 "/></g></g></g><g fill="#000000" fill-opacity="1"><g transform="translate(156.549863, 98.673784)"><g><path d="M 24.203125 -20.9375 C 24.203125 -24.882812 22.769531 -26.859375 19.90625 -26.859375 C 18.40625 -26.859375 17.054688 -26.242188 15.859375 -25.015625 C 14.671875 -23.796875 13.695312 -22.003906 12.9375 -19.640625 C 12.1875 -17.273438 11.8125 -14.835938 11.8125 -12.328125 C 11.8125 -8.617188 13.316406 -6.765625 16.328125 -6.765625 C 17.835938 -6.765625 19.191406 -7.378906 20.390625 -8.609375 C 21.597656 -9.847656 22.535156 -11.5625 23.203125 -13.75 C 23.867188 -15.945312 24.203125 -18.34375 24.203125 -20.9375 Z M 33.328125 -20.9375 C 33.328125 -16.707031 32.617188 -12.957031 31.203125 -9.6875 C 29.785156 -6.414062 27.742188 -3.882812 25.078125 -2.09375 C 22.410156 -0.300781 19.242188 0.59375 15.578125 0.59375 C 11.671875 0.59375 8.546875 -0.582031 6.203125 -2.9375 C 3.867188 -5.289062 2.703125 -8.421875 2.703125 -12.328125 C 2.703125 -16.597656 3.414062 -20.398438 4.84375 -23.734375 C 6.28125 -27.078125 8.351562 -29.664062 11.0625 -31.5 C 13.769531 -33.332031 16.941406 -34.25 20.578125 -34.25 C 24.503906 -34.25 27.609375 -33.066406 29.890625 -30.703125 C 32.179688 -28.335938 33.328125 -25.082031 33.328125 -20.9375 Z M 33.328125 -20.9375 "/></g></g></g></g></g></g></g></g></g></mask><clipPath id="f6dfb8c198"><path d="M 0.980469 0 L 305.769531 0 L 305.769531 150 L 0.980469 150 Z M 0.980469 0 " clip-rule="nonzero"/></clipPath><clipPath id="8c10426305"><rect x="0" width="306" y="0" height="150"/></clipPath><clipPath id="b3c44241a1"><rect x="0" width="306" y="0" height="150"/></clipPath><clipPath id="d76461fefb"><rect x="0" width="306" y="0" height="150"/></clipPath><clipPath id="f2800afc57"><path d="M 0 12 L 34.800781 12 L 34.800781 49 L 0 49 Z M 0 12 " clip-rule="nonzero"/></clipPath><clipPath id="8c95a03b77"><rect x="0" width="35" y="0" height="65"/></clipPath></defs><g transform="matrix(1, 0, 0, 1, 48, 31)"><g clip-path="url(#fe636bd38b)"><g fill="#000000" fill-opacity="1"><g transform="translate(0.682581, 64.662983)"><g><path d="M 4.4375 -0.3125 C 5.34375 -1.414062 6.019531 -2.441406 6.46875 -3.390625 C 6.914062 -4.335938 7.140625 -5.363281 7.140625 -6.46875 L 7.140625 -36.65625 C 7.140625 -37.769531 6.914062 -38.796875 6.46875 -39.734375 C 6.019531 -40.679688 5.34375 -41.707031 4.4375 -42.8125 L 4.4375 -43.125 L 12.8125 -43.125 L 28.34375 -7.765625 L 43.5625 -43.125 L 51.015625 -43.125 L 51.015625 -42.8125 C 50.484375 -42.070312 50.03125 -41.144531 49.65625 -40.03125 C 49.289062 -38.925781 49.109375 -37.800781 49.109375 -36.65625 L 49.109375 -6.46875 C 49.109375 -5.320312 49.289062 -4.191406 49.65625 -3.078125 C 50.03125 -1.972656 50.484375 -1.050781 51.015625 -0.3125 L 51.015625 0 L 41.34375 0 L 41.34375 -0.3125 C 41.875 -1.050781 42.320312 -1.972656 42.6875 -3.078125 C 43.0625 -4.191406 43.25 -5.320312 43.25 -6.46875 L 43.25 -38.5 L 26.546875 0 L 25.5 0 L 8.75 -38.015625 L 8.75 -6.46875 C 8.75 -5.363281 8.972656 -4.335938 9.421875 -3.390625 C 9.878906 -2.441406 10.554688 -1.414062 11.453125 -0.3125 L 11.453125 0 L 4.4375 0 Z M 4.4375 -0.3125 "/></g></g></g><g fill="#000000" fill-opacity="1"><g transform="translate(48.551118, 64.662983)"><g><path d="M 29.875 -9.796875 C 29.21875 -6.671875 27.75 -4.144531 25.46875 -2.21875 C 23.195312 -0.289062 20.4375 0.671875 17.1875 0.671875 C 14.476562 0.671875 12.046875 0.0664062 9.890625 -1.140625 C 7.734375 -2.347656 6.023438 -4.101562 4.765625 -6.40625 C 3.515625 -8.707031 2.890625 -11.421875 2.890625 -14.546875 C 2.890625 -17.910156 3.566406 -20.875 4.921875 -23.4375 C 6.285156 -26.007812 8.09375 -27.992188 10.34375 -29.390625 C 12.601562 -30.785156 15.03125 -31.484375 17.625 -31.484375 C 20.039062 -31.484375 22.128906 -30.945312 23.890625 -29.875 C 25.660156 -28.8125 27.007812 -27.40625 27.9375 -25.65625 C 28.863281 -23.914062 29.328125 -22.019531 29.328125 -19.96875 L 7.640625 -19.96875 L 7.640625 -19.34375 C 7.640625 -15.976562 8.148438 -13.125 9.171875 -10.78125 C 10.203125 -8.4375 11.609375 -6.671875 13.390625 -5.484375 C 15.179688 -4.296875 17.207031 -3.703125 19.46875 -3.703125 C 21.769531 -3.703125 23.78125 -4.242188 25.5 -5.328125 C 27.226562 -6.421875 28.484375 -7.910156 29.265625 -9.796875 Z M 15.65625 -29.640625 C 13.632812 -29.640625 11.882812 -28.9375 10.40625 -27.53125 C 8.925781 -26.132812 8.046875 -24.039062 7.765625 -21.25 L 23.46875 -21.25 C 23.144531 -23.925781 22.320312 -25.992188 21 -27.453125 C 19.6875 -28.910156 17.90625 -29.640625 15.65625 -29.640625 Z M 15.65625 -29.640625 "/></g></g></g><g fill="#000000" fill-opacity="1"><g transform="translate(72.392549, 64.662983)"><g><path d="M 29.875 -9.796875 C 29.21875 -6.671875 27.75 -4.144531 25.46875 -2.21875 C 23.195312 -0.289062 20.4375 0.671875 17.1875 0.671875 C 14.476562 0.671875 12.046875 0.0664062 9.890625 -1.140625 C 7.734375 -2.347656 6.023438 -4.101562 4.765625 -6.40625 C 3.515625 -8.707031 2.890625 -11.421875 2.890625 -14.546875 C 2.890625 -17.910156 3.566406 -20.875 4.921875 -23.4375 C 6.285156 -26.007812 8.09375 -27.992188 10.34375 -29.390625 C 12.601562 -30.785156 15.03125 -31.484375 17.625 -31.484375 C 20.039062 -31.484375 22.128906 -30.945312 23.890625 -29.875 C 25.660156 -28.8125 27.007812 -27.40625 27.9375 -25.65625 C 28.863281 -23.914062 29.328125 -22.019531 29.328125 -19.96875 L 7.640625 -19.96875 L 7.640625 -19.34375 C 7.640625 -15.976562 8.148438 -13.125 9.171875 -10.78125 C 10.203125 -8.4375 11.609375 -6.671875 13.390625 -5.484375 C 15.179688 -4.296875 17.207031 -3.703125 19.46875 -3.703125 C 21.769531 -3.703125 23.78125 -4.242188 25.5 -5.328125 C 27.226562 -6.421875 28.484375 -7.910156 29.265625 -9.796875 Z M 15.65625 -29.640625 C 13.632812 -29.640625 11.882812 -28.9375 10.40625 -27.53125 C 8.925781 -26.132812 8.046875 -24.039062 7.765625 -21.25 L 23.46875 -21.25 C 23.144531 -23.925781 22.320312 -25.992188 21 -27.453125 C 19.6875 -28.910156 17.90625 -29.640625 15.65625 -29.640625 Z M 15.65625 -29.640625 "/></g></g></g><g fill="#000000" fill-opacity="1"><g transform="translate(96.233979, 64.662983)"><g><path d="M 13.546875 0.671875 C 11.335938 0.671875 9.453125 -0.046875 7.890625 -1.484375 C 6.328125 -2.921875 5.546875 -4.929688 5.546875 -7.515625 L 5.546875 -25.390625 C 5.546875 -27.359375 4.617188 -28.710938 2.765625 -29.453125 L 2.765625 -29.75 C 5.566406 -31.1875 8.21875 -33.488281 10.71875 -36.65625 L 11.03125 -36.65625 L 11.03125 -30.796875 L 19.96875 -30.796875 L 19.28125 -28.828125 L 11.03125 -28.828125 L 11.03125 -7.515625 C 11.03125 -5.828125 11.5 -4.507812 12.4375 -3.5625 C 13.382812 -2.625 14.578125 -2.15625 16.015625 -2.15625 C 16.960938 -2.15625 17.773438 -2.304688 18.453125 -2.609375 C 19.128906 -2.921875 19.632812 -3.285156 19.96875 -3.703125 L 20.578125 -3.390625 C 19.921875 -2.160156 18.984375 -1.175781 17.765625 -0.4375 C 16.554688 0.300781 15.148438 0.671875 13.546875 0.671875 Z M 13.546875 0.671875 "/></g></g></g></g></g><g transform="matrix(1, 0, 0, 1, 67, -0.000000000000007527)"><g clip-path="url(#d76461fefb)"><g clip-path="url(#7e01b657e1)"><g transform="matrix(1, 0, 0, 1, 0, -0.000000000000007527)"><g clip-path="url(#b3c44241a1)"><g clip-path="url(#8c53372ff1)"><g mask="url(#87a9ba91a9)"><g transform="matrix(1, 0, 0, 1, 0, -0.000000000000007527)"><g clip-path="url(#8c10426305)"><g clip-path="url(#f6dfb8c198)"><path fill="url(#d07e5cb1ac)" d="M 0.980469 0 L 0.980469 150 L 305.769531 150 L 305.769531 0 Z M 0.980469 0 " fill-rule="nonzero"/></g></g></g></g></g></g></g></g></g></g><g transform="matrix(1, 0, 0, 1, 162, 49)"><g clip-path="url(#8c95a03b77)"><g clip-path="url(#f2800afc57)"><g fill="#000000" fill-opacity="1"><g transform="translate(1.862155, 45.159218)"><g><path d="M 25.109375 3.09375 C 24.191406 3.09375 23.34375 2.878906 22.5625 2.453125 C 21.789062 2.035156 21.015625 1.59375 20.234375 1.125 C 19.753906 0.8125 19.296875 0.789062 18.859375 1.0625 C 16.316406 2.28125 13.773438 2.890625 11.234375 2.890625 C 8.992188 2.890625 6.953125 2.441406 5.109375 1.546875 C 3.265625 0.648438 1.78125 -0.582031 0.65625 -2.15625 C -0.457031 -3.738281 -1.015625 -5.546875 -1.015625 -7.578125 C -1.015625 -8.828125 -0.757812 -10.128906 -0.25 -11.484375 C 0.425781 -13.109375 1.429688 -14.488281 2.765625 -15.625 C 4.109375 -16.757812 5.457031 -17.851562 6.8125 -18.90625 C 7.1875 -19.25 7.351562 -19.691406 7.3125 -20.234375 C 7.21875 -21.109375 7.171875 -21.9375 7.171875 -22.71875 C 7.171875 -25.09375 7.535156 -26.988281 8.265625 -28.40625 C 8.992188 -29.832031 9.90625 -30.875 11 -31.53125 C 12.101562 -32.195312 13.210938 -32.53125 14.328125 -32.53125 C 15.785156 -32.53125 17.082031 -32.070312 18.21875 -31.15625 C 19.351562 -30.238281 19.921875 -29.019531 19.921875 -27.5 C 19.921875 -26.25 19.40625 -24.828125 18.375 -23.234375 C 17.34375 -21.640625 15.539062 -19.992188 12.96875 -18.296875 C 12.457031 -17.921875 12.269531 -17.484375 12.40625 -16.984375 C 12.675781 -16.128906 13.070312 -15.132812 13.59375 -14 C 14.125 -12.863281 14.707031 -11.726562 15.34375 -10.59375 C 15.988281 -9.457031 16.632812 -8.429688 17.28125 -7.515625 C 17.925781 -6.609375 18.484375 -5.914062 18.953125 -5.4375 C 19.460938 -5 19.890625 -5.101562 20.234375 -5.75 C 20.535156 -6.320312 20.753906 -6.945312 20.890625 -7.625 C 21.023438 -8.300781 21.09375 -9.015625 21.09375 -9.765625 C 21.09375 -11.117188 20.988281 -12.140625 20.78125 -12.828125 C 20.582031 -13.523438 20.351562 -14.039062 20.09375 -14.375 C 19.84375 -14.71875 19.613281 -15.050781 19.40625 -15.375 C 19.207031 -15.695312 19.109375 -16.160156 19.109375 -16.765625 C 19.109375 -17.347656 19.285156 -17.816406 19.640625 -18.171875 C 19.992188 -18.523438 20.394531 -18.703125 20.84375 -18.703125 C 21.414062 -18.703125 21.957031 -18.554688 22.46875 -18.265625 C 22.976562 -17.984375 23.453125 -17.4375 23.890625 -16.625 C 24.429688 -15.632812 24.8125 -14.53125 25.03125 -13.3125 C 25.25 -12.09375 25.359375 -10.890625 25.359375 -9.703125 C 25.359375 -8.484375 25.210938 -7.304688 24.921875 -6.171875 C 24.640625 -5.035156 24.191406 -4.03125 23.578125 -3.15625 C 23.210938 -2.539062 23.28125 -2.046875 23.78125 -1.671875 C 24.394531 -1.304688 24.988281 -1.125 25.5625 -1.125 C 26.3125 -1.125 26.984375 -1.304688 27.578125 -1.671875 C 28.171875 -2.046875 28.738281 -2.425781 29.28125 -2.8125 C 29.820312 -3.207031 30.328125 -3.40625 30.796875 -3.40625 C 31.472656 -3.40625 31.9375 -3.175781 32.1875 -2.71875 C 32.445312 -2.257812 32.578125 -1.84375 32.578125 -1.46875 C 32.578125 -0.726562 32.171875 -0.00390625 31.359375 0.703125 C 30.546875 1.421875 29.554688 2 28.390625 2.4375 C 27.222656 2.875 26.128906 3.09375 25.109375 3.09375 Z M 11.1875 -22.671875 C 11.1875 -22.503906 11.3125 -22.453125 11.5625 -22.515625 C 11.8125 -22.585938 12.09375 -22.757812 12.40625 -23.03125 C 12.914062 -23.46875 13.441406 -23.945312 13.984375 -24.46875 C 14.523438 -25 14.976562 -25.523438 15.34375 -26.046875 C 15.71875 -26.578125 15.90625 -27.046875 15.90625 -27.453125 C 15.90625 -27.859375 15.6875 -28.175781 15.25 -28.40625 C 14.875 -28.539062 14.535156 -28.609375 14.234375 -28.609375 C 13.523438 -28.609375 12.941406 -28.320312 12.484375 -27.75 C 12.023438 -27.175781 11.679688 -26.472656 11.453125 -25.640625 C 11.234375 -24.804688 11.125 -24.035156 11.125 -23.328125 C 11.125 -23.222656 11.125 -23.113281 11.125 -23 C 11.125 -22.882812 11.144531 -22.773438 11.1875 -22.671875 Z M 11.125 -1.125 C 11.769531 -1.125 12.421875 -1.179688 13.078125 -1.296875 C 13.742188 -1.410156 14.398438 -1.585938 15.046875 -1.828125 C 15.421875 -1.960938 15.628906 -2.15625 15.671875 -2.40625 C 15.722656 -2.664062 15.613281 -2.929688 15.34375 -3.203125 C 13.957031 -4.898438 12.769531 -6.675781 11.78125 -8.53125 C 10.800781 -10.394531 9.890625 -12.3125 9.046875 -14.28125 C 8.710938 -14.988281 8.238281 -15.109375 7.625 -14.640625 C 5.925781 -13.453125 4.703125 -12.25 3.953125 -11.03125 C 3.210938 -9.8125 2.84375 -8.660156 2.84375 -7.578125 C 2.84375 -6.359375 3.210938 -5.265625 3.953125 -4.296875 C 4.703125 -3.328125 5.710938 -2.554688 6.984375 -1.984375 C 8.253906 -1.410156 9.632812 -1.125 11.125 -1.125 Z M 11.125 -1.125 "/></g></g></g></g></g></g></svg>